  0
SECTION
  2
HEADER
  9
$ACADVER
  1
AC1015
  9
$ACADMAINTVER
 70
     6
  9
$DWGCODEPAGE
  3
ANSI_1252
  9
$INSBASE
 10
0.0
 20
0.0
 30
0.0
  9
$EXTMIN
 10
-31.5030040087
 20
-53.2754491018
 30
0.0
  9
$EXTMAX
 10
44.4969959913
 20
16.7245508982
 30
0.0
  9
$LIMMIN
 10
0.0
 20
0.0
  9
$LIMMAX
 10
420.0
 20
297.0
  9
$ORTHOMODE
 70
     0
  9
$REGENMODE
 70
     1
  9
$FILLMODE
 70
     1
  9
$QTEXTMODE
 70
     0
  9
$MIRRTEXT
 70
     1
  9
$LTSCALE
 40
1.0
  9
$ATTMODE
 70
     1
  9
$TEXTSIZE
 40
3.5
  9
$TRACEWID
 40
1.0
  9
$TEXTSTYLE
  7
Standard
  9
$CLAYER
  8
0
  9
$CELTYPE
  6
ByLayer
  9
$CECOLOR
 62
   256
  9
$CELTSCALE
 40
1.0
  9
$DISPSILH
 70
     0
  9
$DIMSCALE
 40
1.0
  9
$DIMASZ
 40
3.302
  9
$DIMEXO
 40
1.0
  9
$DIMDLI
 40
3.75
  9
$DIMRND
 40
0.0
  9
$DIMDLE
 40
0.0
  9
$DIMEXE
 40
1.0
  9
$DIMTP
 40
0.0
  9
$DIMTM
 40
0.0
  9
$DIMTXT
 40
3.5
  9
$DIMCEN
 40
2.5
  9
$DIMTSZ
 40
0.0
  9
$DIMTOL
 70
     0
  9
$DIMLIM
 70
     0
  9
$DIMTIH
 70
     1
  9
$DIMTOH
 70
     1
  9
$DIMSE1
 70
     0
  9
$DIMSE2
 70
     0
  9
$DIMTAD
 70
     1
  9
$DIMZIN
 70
     0
  9
$DIMBLK
  1

  9
$DIMASO
 70
     1
  9
$DIMSHO
 70
     1
  9
$DIMPOST
  1

  9
$DIMAPOST
  1

  9
$DIMALT
 70
     0
  9
$DIMALTD
 70
     3
  9
$DIMALTF
 40
0.0393700787
  9
$DIMLFAC
 40
1.0
  9
$DIMTOFL
 70
     1
  9
$DIMTVP
 40
0.0
  9
$DIMTIX
 70
     0
  9
$DIMSOXD
 70
     0
  9
$DIMSAH
 70
     0
  9
$DIMBLK1
  1

  9
$DIMBLK2
  1

  9
$DIMSTYLE
  2
ISO-25
  9
$DIMCLRD
 70
     0
  9
$DIMCLRE
 70
     0
  9
$DIMCLRT
 70
     0
  9
$DIMTFAC
 40
1.0
  9
$DIMGAP
 40
1.524
  9
$DIMJUST
 70
     0
  9
$DIMSD1
 70
     0
  9
$DIMSD2
 70
     0
  9
$DIMTOLJ
 70
     0
  9
$DIMTZIN
 70
     0
  9
$DIMALTZ
 70
     0
  9
$DIMALTTZ
 70
     0
  9
$DIMUPT
 70
     0
  9
$DIMDEC
 70
     2
  9
$DIMTDEC
 70
     2
  9
$DIMALTU
 70
     2
  9
$DIMALTTD
 70
     3
  9
$DIMTXSTY
  7
Standard
  9
$DIMAUNIT
 70
     0
  9
$DIMADEC
 70
     2
  9
$DIMALTRND
 40
0.0
  9
$DIMAZIN
 70
     0
  9
$DIMDSEP
 70
    44
  9
$DIMATFIT
 70
     3
  9
$DIMFRAC
 70
     0
  9
$DIMLDRBLK
  1

  9
$DIMLUNIT
 70
     2
  9
$DIMLWD
 70
    -2
  9
$DIMLWE
 70
    -2
  9
$DIMTMOVE
 70
     0
  9
$LUNITS
 70
     2
  9
$LUPREC
 70
     2
  9
$SKETCHINC
 40
1.0
  9
$FILLETRAD
 40
10.0
  9
$AUNITS
 70
     0
  9
$AUPREC
 70
     2
  9
$MENU
  1
.
  9
$ELEVATION
 40
0.0
  9
$PELEVATION
 40
0.0
  9
$THICKNESS
 40
0.0
  9
$LIMCHECK
 70
     0
  9
$CHAMFERA
 40
0.0
  9
$CHAMFERB
 40
0.0
  9
$CHAMFERC
 40
0.0
  9
$CHAMFERD
 40
0.0
  9
$SKPOLY
 70
     0
  9
$TDCREATE
 40
2457192.673124965
  9
$TDUCREATE
 40
2457192.589791632
  9
$TDUPDATE
 40
2457192.673506308
  9
$TDUUPDATE
 40
2457192.590172974
  9
$TDINDWG
 40
0.0000000116
  9
$TDUSRTIMER
 40
0.0000000116
  9
$USRTIMER
 70
     1
  9
$ANGBASE
 50
0.0
  9
$ANGDIR
 70
     0
  9
$PDMODE
 70
     0
  9
$PDSIZE
 40
-1.0
  9
$PLINEWID
 40
0.0
  9
$SPLFRAME
 70
     0
  9
$SPLINETYPE
 70
     6
  9
$SPLINESEGS
 70
     8
  9
$HANDSEED
  5
88
  9
$SURFTAB1
 70
     6
  9
$SURFTAB2
 70
     6
  9
$SURFTYPE
 70
     6
  9
$SURFU
 70
     6
  9
$SURFV
 70
     6
  9
$UCSBASE
  2

  9
$UCSNAME
  2

  9
$UCSORG
 10
0.0
 20
0.0
 30
0.0
  9
$UCSXDIR
 10
1.0
 20
0.0
 30
0.0
  9
$UCSYDIR
 10
0.0
 20
1.0
 30
0.0
  9
$UCSORTHOREF
  2

  9
$UCSORTHOVIEW
 70
     0
  9
$UCSORGTOP
 10
0.0
 20
0.0
 30
0.0
  9
$UCSORGBOTTOM
 10
0.0
 20
0.0
 30
0.0
  9
$UCSORGLEFT
 10
0.0
 20
0.0
 30
0.0
  9
$UCSORGRIGHT
 10
0.0
 20
0.0
 30
0.0
  9
$UCSORGFRONT
 10
0.0
 20
0.0
 30
0.0
  9
$UCSORGBACK
 10
0.0
 20
0.0
 30
0.0
  9
$PUCSBASE
  2

  9
$PUCSNAME
  2

  9
$PUCSORG
 10
0.0
 20
0.0
 30
0.0
  9
$PUCSXDIR
 10
1.0
 20
0.0
 30
0.0
  9
$PUCSYDIR
 10
0.0
 20
1.0
 30
0.0
  9
$PUCSORTHOREF
  2

  9
$PUCSORTHOVIEW
 70
     0
  9
$PUCSORGTOP
 10
0.0
 20
0.0
 30
0.0
  9
$PUCSORGBOTTOM
 10
0.0
 20
0.0
 30
0.0
  9
$PUCSORGLEFT
 10
0.0
 20
0.0
 30
0.0
  9
$PUCSORGRIGHT
 10
0.0
 20
0.0
 30
0.0
  9
$PUCSORGFRONT
 10
0.0
 20
0.0
 30
0.0
  9
$PUCSORGBACK
 10
0.0
 20
0.0
 30
0.0
  9
$USERI1
 70
     0
  9
$USERI2
 70
     0
  9
$USERI3
 70
     0
  9
$USERI4
 70
     0
  9
$USERI5
 70
     0
  9
$USERR1
 40
0.0
  9
$USERR2
 40
0.0
  9
$USERR3
 40
0.0
  9
$USERR4
 40
0.0
  9
$USERR5
 40
0.0
  9
$WORLDVIEW
 70
     1
  9
$SHADEDGE
 70
     3
  9
$SHADEDIF
 70
    70
  9
$TILEMODE
 70
     1
  9
$MAXACTVP
 70
    64
  9
$PINSBASE
 10
0.0
 20
0.0
 30
0.0
  9
$PLIMCHECK
 70
     0
  9
$PEXTMIN
 10
1.0000000000E+20
 20
1.0000000000E+20
 30
1.0000000000E+20
  9
$PEXTMAX
 10
-1.0000000000E+20
 20
-1.0000000000E+20
 30
-1.0000000000E+20
  9
$PLIMMIN
 10
0.0
 20
0.0
  9
$PLIMMAX
 10
420.0
 20
297.0
  9
$UNITMODE
 70
     0
  9
$VISRETAIN
 70
     1
  9
$PLINEGEN
 70
     0
  9
$PSLTSCALE
 70
     1
  9
$TREEDEPTH
 70
  3020
  9
$CMLSTYLE
  2
Standard
  9
$CMLJUST
 70
     0
  9
$CMLSCALE
 40
20.0
  9
$PROXYGRAPHICS
 70
     1
  9
$MEASUREMENT
 70
     1
  9
$CELWEIGHT
370
    -1
  9
$ENDCAPS
280
     0
  9
$JOINSTYLE
280
     0
  9
$LWDISPLAY
290
     1
  9
$INSUNITS
 70
     4
  9
$HYPERLINKBASE
  1

  9
$STYLESHEET
  1

  9
$XEDIT
290
     1
  9
$CEPSNTYPE
380
     0
  9
$PSTYLEMODE
290
     1
  9
$FINGERPRINTGUID
  2
{062C21AA-63EA-45A1-B125-B8C0C71E510E}
  9
$VERSIONGUID
  2
{FAEB1C32-E019-11D5-929B-00C0DF256EC4}
  9
$EXTNAMES
290
     1
  9
$PSVPSCALE
 40
0.0
  9
$OLESTARTUP
290
     0
  0
ENDSEC
  0
SECTION
  2
CLASSES
  0
CLASS
  1
ACDBDICTIONARYWDFLT
  2
AcDbDictionaryWithDefault
  3
ObjectDBX Classes
 90
        0
280
     0
281
     0
  0
CLASS
  1
VISUALSTYLE
  2
AcDbVisualStyle
  3
ObjectDBX Classes
 90
     4095
280
     0
281
     0
  0
CLASS
  1
MATERIAL
  2
AcDbMaterial
  3
ObjectDBX Classes
 90
     1153
280
     0
281
     0
  0
CLASS
  1
SCALE
  2
AcDbScale
  3
ObjectDBX Classes
 90
     1153
280
     0
281
     0
  0
CLASS
  1
SUN
  2
AcDbSun
  3
SCENEOE
 90
     1153
280
     0
281
     0
  0
CLASS
  1
ACDBPLACEHOLDER
  2
AcDbPlaceHolder
  3
ObjectDBX Classes
 90
        0
280
     0
281
     0
  0
CLASS
  1
LAYOUT
  2
AcDbLayout
  3
ObjectDBX Classes
 90
        0
280
     0
281
     0
  0
ENDSEC
  0
SECTION
  2
TABLES
  0
TABLE
  2
VPORT
  5
8
330
0
100
AcDbSymbolTable
 70
     1
  0
VPORT
  5
29
330
8
100
AcDbSymbolTableRecord
100
AcDbViewportTableRecord
  2
*Active
 70
     0
 10
0.0
 20
0.0
 11
1.0
 21
1.0
 12
6.4969959913
 22
-18.2754491018
 13
0.0
 23
0.0
 14
10.0
 24
10.0
 15
10.0
 25
10.0
 16
0.0
 26
0.0
 36
1.0
 17
0.0
 27
0.0
 37
0.0
 40
71.4
 41
1.0857142857
 42
50.0
 43
0.0
 44
0.0
 50
0.0
 51
0.0
 71
     0
 72
   100
 73
     1
 74
     3
 75
     0
 76
     0
 77
     0
 78
     0
281
     0
 65
     1
110
0.0
120
0.0
130
0.0
111
1.0
121
0.0
131
0.0
112
0.0
122
1.0
132
0.0
 79
     0
146
0.0
  0
ENDTAB
  0
TABLE
  2
LTYPE
  5
5
330
0
100
AcDbSymbolTable
 70
     6
  0
LTYPE
  5
14
330
5
100
AcDbSymbolTableRecord
100
AcDbLinetypeTableRecord
  2
ByBlock
 70
     0
  3

 72
    65
 73
     0
 40
0.0
  0
LTYPE
  5
15
330
5
100
AcDbSymbolTableRecord
100
AcDbLinetypeTableRecord
  2
ByLayer
 70
     0
  3

 72
    65
 73
     0
 40
0.0
  0
LTYPE
  5
16
330
5
100
AcDbSymbolTableRecord
100
AcDbLinetypeTableRecord
  2
Continuous
 70
     0
  3
Solid line
 72
    65
 73
     0
 40
0.0
  0
LTYPE
  5
6A
330
5
100
AcDbSymbolTableRecord
100
AcDbLinetypeTableRecord
  2
HIDDEN
 70
     0
  3
Hidden __ __ __ __ __ __ __ __ __ __ __ __ __ __
 72
    65
 73
     2
 40
1.905
 49
1.27
 74
     0
 49
-0.635
 74
     0
  0
LTYPE
  5
6B
330
5
100
AcDbSymbolTableRecord
100
AcDbLinetypeTableRecord
  2
PHANTOM
 70
     0
  3
Phantom ______  __  __  ______  __  __  ______
 72
    65
 73
     6
 40
12.7
 49
6.35
 74
     0
 49
-1.27
 74
     0
 49
1.27
 74
     0
 49
-1.27
 74
     0
 49
1.27
 74
     0
 49
-1.27
 74
     0
  0
LTYPE
  5
6C
330
5
100
AcDbSymbolTableRecord
100
AcDbLinetypeTableRecord
  2
CENTER
 70
     0
  3
Center ____ _ ____ _ ____ _ ____ _ ____ _ ____
 72
    65
 73
     4
 40
10.16
 49
6.35
 74
     0
 49
-1.27
 74
     0
 49
1.27
 74
     0
 49
-1.27
 74
     0
  0
LTYPE
  5
6D
330
5
100
AcDbSymbolTableRecord
100
AcDbLinetypeTableRecord
  2
CENTERX2
 70
     0
  3
Center (2x) ________  __  ________  __  _____
 72
    65
 73
     4
 40
20.32
 49
12.7
 74
     0
 49
-2.54
 74
     0
 49
2.54
 74
     0
 49
-2.54
 74
     0
  0
LTYPE
  5
6E
330
5
100
AcDbSymbolTableRecord
100
AcDbLinetypeTableRecord
  2
DOT2
 70
     0
  3
Dot (.5x) ........................................
 72
    65
 73
     2
 40
0.635
 49
0.0
 74
     0
 49
-0.635
 74
     0
  0
ENDTAB
  0
TABLE
  2
LAYER
  5
2
330
0
100
AcDbSymbolTable
 70
     1
  0
LAYER
  5
10
330
2
100
AcDbSymbolTableRecord
100
AcDbLayerTableRecord
  2
0
 70
     0
 62
     7
  6
Continuous
370
    -3
390
F
  0
ENDTAB
  0
TABLE
  2
STYLE
  5
3
330
0
100
AcDbSymbolTable
 70
     2
  0
STYLE
  5
11
330
3
100
AcDbSymbolTableRecord
100
AcDbTextStyleTableRecord
  2
Standard
 70
     0
 40
0.0
 41
1.0
 50
0.0
 71
     0
 42
3.5
  3
txt
  4

  0
STYLE
  5
85
330
3
100
AcDbSymbolTableRecord
100
AcDbTextStyleTableRecord
  2
SLDTEXTSTYLE0
 70
     0
 40
0.0
 41
0.7
 50
0.0
 71
     0
 42
3.5
  3
TXT
  4

  0
ENDTAB
  0
TABLE
  2
VIEW
  5
6
330
0
100
AcDbSymbolTable
 70
     0
  0
ENDTAB
  0
TABLE
  2
UCS
  5
7
330
0
100
AcDbSymbolTable
 70
     0
  0
ENDTAB
  0
TABLE
  2
APPID
  5
9
330
0
100
AcDbSymbolTable
 70
     1
  0
APPID
  5
12
330
9
100
AcDbSymbolTableRecord
100
AcDbRegAppTableRecord
  2
ACAD
 70
     0
  0
ENDTAB
  0
TABLE
  2
DIMSTYLE
  5
A
330
0
100
AcDbSymbolTable
 70
     1
100
AcDbDimStyleTable
  0
DIMSTYLE
105
27
330
A
100
AcDbSymbolTableRecord
100
AcDbDimStyleTableRecord
  2
ISO-25
 70
     0
 41
2.5
 42
0.625
 43
3.75
 44
1.25
 73
     0
 74
     0
 77
     1
 78
     8
140
2.5
141
2.5
143
0.0393700787
147
0.625
171
     3
172
     1
178
     0
271
     2
272
     2
274
     3
278
    44
283
     0
284
     8
340
11
  0
ENDTAB
  0
TABLE
  2
BLOCK_RECORD
  5
1
330
0
100
AcDbSymbolTable
 70
     1
  0
BLOCK_RECORD
  5
1F
330
1
100
AcDbSymbolTableRecord
100
AcDbBlockTableRecord
  2
*Model_Space
340
22
  0
BLOCK_RECORD
  5
1B
330
1
100
AcDbSymbolTableRecord
100
AcDbBlockTableRecord
  2
*Paper_Space
340
1E
  0
BLOCK_RECORD
  5
23
330
1
100
AcDbSymbolTableRecord
100
AcDbBlockTableRecord
  2
*Paper_Space0
340
26
  0
ENDTAB
  0
ENDSEC
  0
SECTION
  2
BLOCKS
  0
BLOCK
  5
20
330
1F
100
AcDbEntity
  8
0
100
AcDbBlockBegin
  2
*Model_Space
 70
     0
 10
0.0
 20
0.0
 30
0.0
  3
*Model_Space
  1
*Model_Space
  0
ENDBLK
  5
21
330
1F
100
AcDbEntity
  8
0
100
AcDbBlockEnd
  0
BLOCK
  5
1C
330
1B
100
AcDbEntity
 67
     1
  8
0
100
AcDbBlockBegin
  2
*Paper_Space
 70
     0
 10
0.0
 20
0.0
 30
0.0
  3
*Paper_Space
  1
*Paper_Space
  0
ENDBLK
  5
1D
330
1B
100
AcDbEntity
 67
     1
  8
0
100
AcDbBlockEnd
  0
BLOCK
  5
24
330
23
100
AcDbEntity
  8
0
100
AcDbBlockBegin
  2
*Paper_Space0
 70
     0
 10
0.0
 20
0.0
 30
0.0
  3
*Paper_Space0
  1
*Paper_Space0
  0
ENDBLK
  5
25
330
23
100
AcDbEntity
  8
0
100
AcDbBlockEnd
  0
ENDSEC
  0
SECTION
  2
ENTITIES
  0
LWPOLYLINE
  5
6F
330
1F
100
AcDbEntity
  8
0
  6
Continuous
 62
     7
100
AcDbPolyline
 90
       75
 70
   128
 43
0.0
 10
-4.9817860126
 20
-17.7049838694
 10
-4.9817896927
 20
-14.2049838694
 10
-4.9817896927
 20
-14.2049838694
 10
-4.4208922568
 20
-14.2049838694
 10
-4.4208922568
 20
-14.2049838694
 10
-4.3031037953
 20
-14.2056849912
 10
-4.1930276735
 20
-14.2091906002
 10
-4.092066135
 20
-14.2140984527
 10
-3.9981158145
 20
-14.2204085489
 10
-3.9132800773
 20
-14.2295231322
 10
-3.8361566799
 20
-14.2400399591
 10
-3.767446744
 20
-14.2526601514
 10
-3.7071502696
 20
-14.2673837091
 10
-3.7071502696
 20
-14.2673837091
 10
-3.6286246286
 20
-14.2905207284
 10
-3.5550068401
 20
-14.3185656002
 10
-3.4848946607
 20
-14.3508172027
 10
-3.4189892119
 20
-14.3872755361
 10
-3.357290494
 20
-14.428641722
 10
-3.2997985068
 20
-14.4749157604
 10
-3.2458121286
 20
-14.5253965296
 10
-3.196733603
 20
-14.5800840296
 10
-3.1525629299
 20
-14.6382771386
 10
-3.1140012312
 20
-14.6992747348
 10
-3.0810485068
 20
-14.7623756963
 10
-3.0544058786
 20
-14.828281145
 10
-3.0340733466
 20
-14.8969910809
 10
-3.0193497889
 20
-14.9678043822
 10
-3.0102352055
 20
-15.0414221707
 10
-3.0074307183
 20
-15.1178444463
 10
-3.0074307183
 20
-15.1178444463
 10
-3.0130396927
 20
-15.2160014976
 10
-3.0284643722
 20
-15.3099518181
 10
-3.0558081222
 20
-15.3989942861
 10
-3.0929675773
 20
-15.4838300232
 10
-3.142046103
 20
-15.5644590296
 10
-3.2051470645
 20
-15.6429846707
 10
-3.2808682183
 20
-15.7187058245
 10
-3.3706118081
 20
-15.792323613
 10
-3.3706118081
 20
-15.792323613
 10
-3.2969940196
 20
-15.8308853117
 10
-3.2282840837
 20
-15.8715503758
 10
-3.1651831222
 20
-15.9143188053
 10
-3.1062888914
 20
-15.959891722
 10
-3.0537047568
 20
-16.007568004
 10
-3.005327353
 20
-16.0573476514
 10
-2.9625589235
 20
-16.1099317861
 10
-2.9246983466
 20
-16.1646192861
 10
-2.8917456222
 20
-16.2214101514
 10
-2.8629996286
 20
-16.281005504
 10
-2.8384603658
 20
-16.3434053437
 10
-2.8181278337
 20
-16.4079085489
 10
-2.8027031542
 20
-16.4752162412
 10
-2.7921863273
 20
-16.5446272989
 10
-2.7851751094
 20
-16.6168428437
 10
-2.783071744
 20
-16.6918628758
 10
-2.783071744
 20
-16.6918628758
 10
-2.7928874491
 20
-16.834891722
 10
-2.8209323209
 20
-16.971610472
 10
-2.8693097248
 20
-17.1020191258
 10
-2.9359162953
 20
-17.2261176835
 10
-3.0179475453
 20
-17.3389982925
 10
-3.111196744
 20
-17.436454222
 10
-3.2149627696
 20
-17.518485472
 10
-3.3306478658
 20
-17.5857931643
 10
-3.3937488273
 20
-17.6138380361
 10
-3.4624587632
 20
-17.6376761771
 10
-3.5374787953
 20
-17.6587098309
 10
-3.6181078017
 20
-17.6748356322
 10
-3.7043457824
 20
-17.6881569463
 10
-3.7961927376
 20
-17.6972715296
 10
-3.8936486671
 20
-17.702880504
 10
-3.9974146927
 20
-17.7049838694
 10
-3.9974146927
 20
-17.7049838694
 10
-4.9817896927
 20
-17.7049838694
  0
LWPOLYLINE
  5
70
330
1F
100
AcDbEntity
  8
0
  6
Continuous
 62
     7
100
AcDbPolyline
 90
       32
 70
   128
 43
0.0
 10
-4.353582859
 20
-14.8331889976
 10
-4.3535845645
 20
-15.5960095104
 10
-4.3535845645
 20
-15.5960095104
 10
-4.1867175773
 20
-15.5960095104
 10
-4.1867175773
 20
-15.5960095104
 10
-4.1187087632
 20
-15.5946072668
 10
-4.0556078017
 20
-15.5896994143
 10
-3.9974146927
 20
-15.5812859527
 10
-3.9427271927
 20
-15.5693668822
 10
-3.8936486671
 20
-15.5546433245
 10
-3.8480757504
 20
-15.5364141579
 10
-3.8074106863
 20
-15.5146793822
 10
-3.7716534748
 20
-15.4901401194
 10
-3.7120581222
 20
-15.4326481322
 10
-3.6692896927
 20
-15.3653404399
 10
-3.6440493081
 20
-15.2882170425
 10
-3.6356358466
 20
-15.2019790617
 10
-3.6356358466
 20
-15.2019790617
 10
-3.6433481863
 20
-15.1213500553
 10
-3.6678874491
 20
-15.0498356322
 10
-3.7078513914
 20
-14.9867346707
 10
-3.7646422568
 20
-14.9327482925
 10
-3.7989972248
 20
-14.9096112732
 10
-3.8375589235
 20
-14.8892787412
 10
-3.8796262312
 20
-14.8717506963
 10
-3.9266013914
 20
-14.8577282604
 10
-3.9777832824
 20
-14.8472114335
 10
-4.0331719042
 20
-14.8394990937
 10
-4.0927672568
 20
-14.8345912412
 10
-4.1565693401
 20
-14.8331889976
 10
-4.1565693401
 20
-14.8331889976
 10
-4.3535845645
 20
-14.8331889976
  0
LWPOLYLINE
  5
71
330
1F
100
AcDbEntity
  8
0
  6
Continuous
 62
     7
100
AcDbPolyline
 90
       40
 70
   128
 43
0.0
 10
-4.353582859
 20
-16.1793428437
 10
-4.3535845645
 20
-17.0767787412
 10
-4.3535845645
 20
-17.0767787412
 10
-4.1726951414
 20
-17.0767787412
 10
-4.1726951414
 20
-17.0767787412
 10
-4.0654235068
 20
-17.0753764976
 10
-3.9665653337
 20
-17.070468645
 10
-3.8775228658
 20
-17.0620551835
 10
-3.7968938594
 20
-17.0508372348
 10
-3.7260805581
 20
-17.0361136771
 10
-3.6643818401
 20
-17.0178845104
 10
-3.6110965837
 20
-16.9968508566
 10
-3.5676270324
 20
-16.9723115937
 10
-3.5311686991
 20
-16.944266722
 10
-3.4989170966
 20
-16.9141184848
 10
-3.4722744683
 20
-16.8804646386
 10
-3.4505396927
 20
-16.8433051835
 10
-3.4330116478
 20
-16.804042363
 10
-3.4210925773
 20
-16.7612739335
 10
-3.4133802376
 20
-16.7157010168
 10
-3.4112768722
 20
-16.667323613
 10
-3.4112768722
 20
-16.667323613
 10
-3.4140813594
 20
-16.6119349912
 10
-3.4224948209
 20
-16.5600519784
 10
-3.4372183786
 20
-16.5109734527
 10
-3.4568497889
 20
-16.4646994143
 10
-3.4827912953
 20
-16.4219309848
 10
-3.514341776
 20
-16.3819670425
 10
-3.552202353
 20
-16.3448075873
 10
-3.5949707824
 20
-16.3104526194
 10
-3.6447504299
 20
-16.2796032604
 10
-3.7015412953
 20
-16.2529606322
 10
-3.7660445004
 20
-16.2305247348
 10
-3.8382600453
 20
-16.2122955681
 10
-3.9181879299
 20
-16.1975720104
 10
-4.0058281542
 20
-16.1877563053
 10
-4.1011807183
 20
-16.1814462091
 10
-4.2035445004
 20
-16.1793428437
 10
-4.2035445004
 20
-16.1793428437
 10
-4.3535845645
 20
-16.1793428437
  0
LWPOLYLINE
  5
72
330
1F
100
AcDbEntity
  8
0
  6
Continuous
 62
     7
100
AcDbPolyline
 90
      164
 70
   128
 43
0.0
 10
1.0527651757
 20
-14.7616745745
 10
0.5774050188
 20
-15.2167026194
 10
0.5774050188
 20
-15.2167026194
 10
0.4624210445
 20
-15.1059253758
 10
0.3425292176
 20
-15.0098716899
 10
0.2177295381
 20
-14.9285415617
 10
0.0887231278
 20
-14.8619349912
 10
-0.045191135
 20
-14.8100519784
 10
-0.1840132504
 20
-14.7728925232
 10
-0.3270420966
 20
-14.7511577476
 10
-0.4749787953
 20
-14.7434454079
 10
-0.4749787953
 20
-14.7434454079
 10
-0.6032840837
 20
-14.7490543822
 10
-0.7259803978
 20
-14.7651801835
 10
-0.8437688594
 20
-14.7925239335
 10
-0.9559483466
 20
-14.8303845104
 10
-1.0632199812
 20
-14.8794630361
 10
-1.1648826414
 20
-14.9390583886
 10
-1.2616374491
 20
-15.0098716899
 10
-1.3527832824
 20
-15.0912018181
 10
-1.4355156542
 20
-15.1802442861
 10
-1.5070300773
 20
-15.2741946066
 10
-1.5680276735
 20
-15.3730527796
 10
-1.6178073209
 20
-15.4761176835
 10
-1.6563690196
 20
-15.5847915617
 10
-1.6837127696
 20
-15.6969710489
 10
-1.7005396927
 20
-15.8147595104
 10
-1.7061486671
 20
-15.9367547027
 10
-1.7061486671
 20
-15.9367547027
 10
-1.7005396927
 20
-16.0629566258
 10
-1.6830116478
 20
-16.1842506963
 10
-1.6542656542
 20
-16.3006369143
 10
-1.6136005901
 20
-16.4121152796
 10
-1.5624186991
 20
-16.5186857925
 10
-1.4986166158
 20
-16.6203484527
 10
-1.4235965837
 20
-16.7171032604
 10
-1.337358603
 20
-16.8089502155
 10
-1.2427071607
 20
-16.8930848309
 10
-1.142446744
 20
-16.9653003758
 10
-1.036577353
 20
-17.0269990937
 10
-0.9250989876
 20
-17.0767787412
 10
-0.8087127696
 20
-17.1160415617
 10
-0.6874186991
 20
-17.1440864335
 10
-0.5598145324
 20
-17.1609133566
 10
-0.4273025132
 20
-17.1665223309
 10
-0.4273025132
 20
-17.1665223309
 10
-0.3410645324
 20
-17.1644189655
 10
-0.2583321607
 20
-17.1567066258
 10
-0.1791053978
 20
-17.1447875553
 10
-0.103384244
 20
-17.128661754
 10
-0.0311686991
 20
-17.1069269784
 10
0.0375412368
 20
-17.080985472
 10
0.1034466855
 20
-17.050136113
 10
0.1651454034
 20
-17.0143789014
 10
0.2240396342
 20
-16.9737138373
 10
0.2801293778
 20
-16.9274397989
 10
0.3334146342
 20
-16.8762579079
 10
0.3838954034
 20
-16.8194670425
 10
0.4308705637
 20
-16.7570672027
 10
0.4750412368
 20
-16.6897595104
 10
0.5164074227
 20
-16.6168428437
 10
0.5549691214
 20
-16.5383172027
 10
0.5549691214
 20
-16.5383172027
 10
-0.4497384107
 20
-16.5383172027
 10
-0.4497384107
 20
-16.5383172027
 10
-0.4497384107
 20
-15.9101120745
 10
-0.4497384107
 20
-15.9101120745
 10
1.2953537368
 20
-15.9101120745
 10
1.2953537368
 20
-15.9101120745
 10
1.3002615893
 20
-16.0594510168
 10
1.3002615893
 20
-16.0594510168
 10
1.2967559804
 20
-16.1744349912
 10
1.2855380317
 20
-16.2887178437
 10
1.2666077432
 20
-16.4008973309
 10
1.2406662368
 20
-16.5116745745
 10
1.2077135124
 20
-16.6210495745
 10
1.1663473265
 20
-16.7290223309
 10
1.1179699227
 20
-16.834891722
 10
1.0625813009
 20
-16.9400599912
 10
1.0008825829
 20
-17.0410215296
 10
0.9349771342
 20
-17.135672972
 10
0.8648649547
 20
-17.2247154399
 10
0.7898449227
 20
-17.3074478117
 10
0.7106181599
 20
-17.3838700873
 10
0.6271846663
 20
-17.4539822668
 10
0.5395444419
 20
-17.5177843502
 10
0.446996365
 20
-17.5759774591
 10
0.3502415573
 20
-17.6271593502
 10
0.2499811406
 20
-17.6713300232
 10
0.1448128714
 20
-17.7091906002
 10
0.0361389932
 20
-17.7400399591
 10
-0.0767416158
 20
-17.7638781002
 10
-0.1938289555
 20
-17.7807050232
 10
-0.3144219042
 20
-17.7912218502
 10
-0.4399227055
 20
-17.7947274591
 10
-0.4399227055
 20
-17.7947274591
 10
-0.5738369683
 20
-17.7912218502
 10
-0.704946744
 20
-17.7800039014
 10
-0.8318497889
 20
-17.761073613
 10
-0.954546103
 20
-17.7351321066
 10
-1.0744379299
 20
-17.7021793822
 10
-1.190123026
 20
-17.6615143181
 10
-1.3023025132
 20
-17.6131369143
 10
-1.4109763914
 20
-17.5577482925
 10
-1.5147424171
 20
-17.4953484527
 10
-1.6128994683
 20
-17.4266385168
 10
-1.7054475453
 20
-17.3516184848
 10
-1.7930877696
 20
-17.2702883566
 10
-1.8744178978
 20
-17.1826481322
 10
-1.9508401735
 20
-17.0893989335
 10
-2.020952353
 20
-16.9891385168
 10
-2.0861566799
 20
-16.882568004
 10
-2.1443497889
 20
-16.7717907604
 10
-2.1948305581
 20
-16.6589101514
 10
-2.2375989876
 20
-16.5439261771
 10
-2.2719539555
 20
-16.4268388373
 10
-2.2992977055
 20
-16.3076481322
 10
-2.3189291158
 20
-16.1863540617
 10
-2.3301470645
 20
-16.0629566258
 10
-2.3343537953
 20
-15.9374558245
 10
-2.3343537953
 20
-15.9374558245
 10
-2.3273425773
 20
-15.7663821066
 10
-2.3056078017
 20
-15.600917363
 10
-2.2698505901
 20
-15.4410615937
 10
-2.2193698209
 20
-15.2868147989
 10
-2.1548666158
 20
-15.1388781002
 10
-2.0763409748
 20
-14.995849254
 10
-1.983091776
 20
-14.859130504
 10
-1.8751190196
 20
-14.7273196066
 10
-1.8751190196
 20
-14.7273196066
 10
-1.8057079619
 20
-14.6530006963
 10
-1.7334924171
 20
-14.5835896386
 10
-1.6591735068
 20
-14.5190864335
 10
-1.5820501094
 20
-14.4594910809
 10
-1.5028233466
 20
-14.4048035809
 10
-1.4200909748
 20
-14.3543228117
 10
-1.3359563594
 20
-14.308749895
 10
-1.248316135
 20
-14.2680848309
 10
-1.1585725453
 20
-14.2323276194
 10
-1.0660244683
 20
-14.2014782604
 10
-0.9706719042
 20
-14.1748356322
 10
-0.8732159748
 20
-14.1538019784
 10
-0.7729555581
 20
-14.1369750553
 10
-0.670591776
 20
-14.1250559848
 10
-0.5654235068
 20
-14.117343645
 10
-0.4574507504
 20
-14.1152402796
 10
-0.4574507504
 20
-14.1152402796
 10
-0.3445701414
 20
-14.1180447668
 10
-0.233091776
 20
-14.1257571066
 10
-0.123716776
 20
-14.1383772989
 10
-0.0157440196
 20
-14.1566064655
 10
0.0901253714
 20
-14.1797434848
 10
0.193891397
 20
-14.2084894784
 10
0.2962551791
 20
-14.2421433245
 10
0.3965155958
 20
-14.2807050232
 10
0.3965155958
 20
-14.2807050232
 10
0.4799490893
 20
-14.3185656002
 10
0.5633825829
 20
-14.363437395
 10
0.6461149547
 20
-14.4139181643
 10
0.7281462047
 20
-14.4707090296
 10
0.8101774547
 20
-14.534511113
 10
0.8915075829
 20
-14.6039221707
 10
0.9721365893
 20
-14.6796433245
 10
1.0527655958
 20
-14.7616745745
  0
LWPOLYLINE
  5
73
330
1F
100
AcDbEntity
  8
0
  6
Continuous
 62
     7
100
AcDbPolyline
 90
      162
 70
   128
 43
0.0
 10
3.7233382463
 20
-14.6726321066
 10
3.2535869099
 20
-15.1024197668
 10
3.2535869099
 20
-15.1024197668
 10
3.1918881919
 20
-15.0182851514
 10
3.1294883522
 20
-14.9453684848
 10
3.0670885124
 20
-14.8836697668
 10
3.0046886727
 20
-14.8331889976
 10
2.9415877111
 20
-14.7939261771
 10
2.8777856278
 20
-14.7658813053
 10
2.8139835445
 20
-14.7490543822
 10
2.7501814611
 20
-14.7434454079
 10
2.7501814611
 20
-14.7434454079
 10
2.6905861086
 20
-14.7476521386
 10
2.6365997304
 20
-14.7609734527
 10
2.5889234483
 20
-14.7834093502
 10
2.5461550188
 20
-14.8142587091
 10
2.5118000509
 20
-14.8507170425
 10
2.4865596663
 20
-14.8885776194
 10
2.4718361086
 20
-14.9299438053
 10
2.466928256
 20
-14.9727122348
 10
2.466928256
 20
-14.9727122348
 10
2.470433865
 20
-15.0161817861
 10
2.4816518137
 20
-15.0589502155
 10
2.4998809804
 20
-15.1003164014
 10
2.525121365
 20
-15.1402803437
 10
2.525121365
 20
-15.1402803437
 10
2.5496606278
 20
-15.1704285809
 10
2.5840155958
 20
-15.2075880361
 10
2.6288873906
 20
-15.2531609527
 10
2.6835748906
 20
-15.3057450873
 10
2.747376974
 20
-15.3660415617
 10
2.8216958842
 20
-15.433349254
 10
2.9065316214
 20
-15.5090704079
 10
3.0004819419
 20
-15.5918027796
 10
3.0004819419
 20
-15.5918027796
 10
3.0888232881
 20
-15.6682250553
 10
3.1680500509
 20
-15.7369349912
 10
3.2381622304
 20
-15.7986337091
 10
3.2991598265
 20
-15.8526200873
 10
3.3510428393
 20
-15.8995952476
 10
3.393110147
 20
-15.9388580681
 10
3.4267639932
 20
-15.9711096707
 10
3.451303256
 20
-15.9956489335
 10
3.451303256
 20
-15.9956489335
 10
3.5424490893
 20
-16.0973115937
 10
3.6195724868
 20
-16.1968708886
 10
3.6819723265
 20
-16.2936256963
 10
3.7303497304
 20
-16.3889782604
 10
3.7668080637
 20
-16.4850319463
 10
3.7927495701
 20
-16.5845912412
 10
3.8081742496
 20
-16.6897595104
 10
3.8130821022
 20
-16.7984333886
 10
3.8130821022
 20
-16.7984333886
 10
3.8088753714
 20
-16.9043027796
 10
3.7948529355
 20
-17.0052643181
 10
3.7724170381
 20
-17.1020191258
 10
3.7401654355
 20
-17.1931649591
 10
3.6995003714
 20
-17.2801040617
 10
3.6490196022
 20
-17.3628364335
 10
3.5901253714
 20
-17.4399598309
 10
3.5214154355
 20
-17.5128764976
 10
3.4456942817
 20
-17.5787819463
 10
3.3650652752
 20
-17.6362739335
 10
3.2781261727
 20
-17.6846513373
 10
3.1862792176
 20
-17.7239141579
 10
3.0881221663
 20
-17.7547635168
 10
2.9850572624
 20
-17.7771994143
 10
2.8763833842
 20
-17.7905207284
 10
2.7621005317
 20
-17.7947274591
 10
2.7621005317
 20
-17.7947274591
 10
2.6723569419
 20
-17.791922972
 10
2.5847167176
 20
-17.7835095104
 10
2.5005821022
 20
-17.7694870745
 10
2.4199530958
 20
-17.7498556643
 10
2.3414274547
 20
-17.7246152796
 10
2.2657063009
 20
-17.6937659207
 10
2.193490756
 20
-17.6573075873
 10
2.1240796983
 20
-17.6152402796
 10
2.0574731278
 20
-17.5668628758
 10
1.9929699227
 20
-17.5121753758
 10
1.9312712047
 20
-17.4511777796
 10
1.872376974
 20
-17.3838700873
 10
1.8155861086
 20
-17.3095511771
 10
1.7608986086
 20
-17.2296232925
 10
1.7090155958
 20
-17.1426841899
 10
1.6592359483
 20
-17.0494349912
 10
1.6592359483
 20
-17.0494349912
 10
2.2117199227
 20
-16.7178043822
 10
2.2117199227
 20
-16.7178043822
 10
2.2748208842
 20
-16.8229726514
 10
2.3407263329
 20
-16.9141184848
 10
2.408735147
 20
-16.9912418822
 10
2.4795484483
 20
-17.0543428437
 10
2.552465115
 20
-17.1034213694
 10
2.627485147
 20
-17.1384774591
 10
2.7053096663
 20
-17.159511113
 10
2.7852375509
 20
-17.1665223309
 10
2.7852375509
 20
-17.1665223309
 10
2.8665676791
 20
-17.1602122348
 10
2.9408865893
 20
-17.1412819463
 10
3.0081942817
 20
-17.1104325873
 10
3.0691918778
 20
-17.0662619143
 10
3.119672647
 20
-17.0143789014
 10
3.1561309804
 20
-16.9582891579
 10
3.177865756
 20
-16.8986938053
 10
3.184876974
 20
-16.834891722
 10
3.184876974
 20
-16.834891722
 10
3.1792679996
 20
-16.7752963694
 10
3.1631421983
 20
-16.7157010168
 10
3.1364995701
 20
-16.6561056643
 10
3.0986389932
 20
-16.5965103117
 10
3.0740997304
 20
-16.5649598309
 10
3.0432503714
 20
-16.5292026194
 10
3.0053897945
 20
-16.4892386771
 10
2.9612191214
 20
-16.4457691258
 10
2.9107383522
 20
-16.3980928437
 10
2.8539474868
 20
-16.3462098309
 10
2.7908465252
 20
-16.2908212091
 10
2.7207343458
 20
-16.2312258566
 10
2.7207343458
 20
-16.2312258566
 10
2.5875212047
 20
-16.1176441258
 10
2.466928256
 20
-16.011073613
 10
2.3582543778
 20
-15.9108131963
 10
2.2622006919
 20
-15.8168628758
 10
2.1780660765
 20
-15.7299237732
 10
2.1065516534
 20
-15.6499958886
 10
2.0476574227
 20
-15.5763781002
 10
2.0006822624
 20
-15.5097715296
 10
1.9298689611
 20
-15.3828684848
 10
1.8793881919
 20
-15.2559654399
 10
1.8485388329
 20
-15.129062395
 10
1.8387231278
 20
-15.002860472
 10
1.8387231278
 20
-15.002860472
 10
1.8429298586
 20
-14.9131168822
 10
1.8555500509
 20
-14.8268789014
 10
1.8758825829
 20
-14.7434454079
 10
1.9046285765
 20
-14.6635175232
 10
1.9417880317
 20
-14.5870952476
 10
1.9873609483
 20
-14.5134774591
 10
2.0413473265
 20
-14.4433652796
 10
2.1030460445
 20
-14.3767587091
 10
2.1710548586
 20
-14.315761113
 10
2.2432704034
 20
-14.2624758566
 10
2.3189915573
 20
-14.2176040617
 10
2.3989194419
 20
-14.1804446066
 10
2.4830540573
 20
-14.151698613
 10
2.5706942817
 20
-14.1313660809
 10
2.661840115
 20
-14.1194470104
 10
2.7571926791
 20
-14.1152402796
 10
2.7571926791
 20
-14.1152402796
 10
2.880590115
 20
-14.1229526194
 10
3.0011830637
 20
-14.1453885168
 10
3.1189715252
 20
-14.182547972
 10
3.2332543778
 20
-14.2351321066
 10
3.290746365
 20
-14.2680848309
 10
3.348939474
 20
-14.3073476514
 10
3.4085348265
 20
-14.3529205681
 10
3.4688313009
 20
-14.4041024591
 10
3.5305300188
 20
-14.4622955681
 10
3.5936309804
 20
-14.5260976514
 10
3.6581341855
 20
-14.5962098309
 10
3.7233385124
 20
-14.6726321066
  0
LWPOLYLINE
  5
74
330
1F
100
AcDbEntity
  8
0
  6
Continuous
 62
     7
100
AcDbPolyline
 90
      144
 70
   128
 43
0.0
 10
8.928462863
 20
-14.8121553437
 10
8.4678296983
 20
-15.2524598309
 10
8.4678296983
 20
-15.2524598309
 10
8.3486389932
 20
-15.1332691258
 10
8.2259426791
 20
-15.0295031002
 10
8.0990396342
 20
-14.9425639976
 10
7.9686309804
 20
-14.8703484527
 10
7.8347167176
 20
-14.8149598309
 10
7.6972968458
 20
-14.7749958886
 10
7.5556702432
 20
-14.7511577476
 10
7.4105380317
 20
-14.7434454079
 10
7.4105380317
 20
-14.7434454079
 10
7.2892439611
 20
-14.7490543822
 10
7.1721566214
 20
-14.7651801835
 10
7.060678256
 20
-14.7925239335
 10
6.9541077432
 20
-14.8303845104
 10
6.8517439611
 20
-14.8794630361
 10
6.7549891534
 20
-14.9390583886
 10
6.6624410765
 20
-15.0098716899
 10
6.575501974
 20
-15.0912018181
 10
6.4962752111
 20
-15.1802442861
 10
6.4268641534
 20
-15.2748957284
 10
6.3686710445
 20
-15.3744550232
 10
6.3209947624
 20
-15.4789221707
 10
6.2838353073
 20
-15.5882971707
 10
6.2571926791
 20
-15.703281145
 10
6.2417679996
 20
-15.823172972
 10
6.2361590252
 20
-15.9479726514
 10
6.2361590252
 20
-15.9479726514
 10
6.2382623906
 20
-16.0356128758
 10
6.2452736086
 20
-16.120448613
 10
6.2571926791
 20
-16.2031809848
 10
6.2740196022
 20
-16.2831088694
 10
6.295053256
 20
-16.3602322668
 10
6.3202936406
 20
-16.4352522989
 10
6.3511429996
 20
-16.5081689655
 10
6.3861990893
 20
-16.578281145
 10
6.4261630317
 20
-16.6448877155
 10
6.4696325829
 20
-16.7079886771
 10
6.5166077432
 20
-16.7675840296
 10
6.5677896342
 20
-16.8236737732
 10
6.623178256
 20
-16.8755567861
 10
6.6820724868
 20
-16.9239341899
 10
6.7451734483
 20
-16.9688059848
 10
6.8117800188
 20
-17.0101721707
 10
6.8811910765
 20
-17.046630504
 10
6.9527054996
 20
-17.0788821066
 10
7.0263232881
 20
-17.1055247348
 10
7.1020444419
 20
-17.1272595104
 10
7.1791678393
 20
-17.1447875553
 10
7.2583946022
 20
-17.1567066258
 10
7.3397247304
 20
-17.1644189655
 10
7.4224571022
 20
-17.1665223309
 10
7.4224571022
 20
-17.1665223309
 10
7.5626814611
 20
-17.159511113
 10
7.696595724
 20
-17.1391785809
 10
7.8249010124
 20
-17.104823613
 10
7.9461950829
 20
-17.0571473309
 10
8.0064915573
 20
-17.0269990937
 10
8.0681902752
 20
-16.9905407604
 10
8.1312912368
 20
-16.9491745745
 10
8.1957944419
 20
-16.9021994143
 10
8.2616998906
 20
-16.8496152796
 10
8.3290075829
 20
-16.7907210489
 10
8.3977175188
 20
-16.7269189655
 10
8.4678296983
 20
-16.6575079079
 10
8.4678296983
 20
-16.6575079079
 10
8.9144442817
 20
-17.1265583886
 10
8.9144442817
 20
-17.1265583886
 10
8.8197928393
 20
-17.2170031002
 10
8.7272447624
 20
-17.3004365937
 10
8.6353978073
 20
-17.3761577476
 10
8.5449530958
 20
-17.4455688053
 10
8.4559106278
 20
-17.5072675232
 10
8.3682704034
 20
-17.5612539014
 10
8.2813313009
 20
-17.6089301835
 10
8.1964955637
 20
-17.6488941258
 10
8.1102575829
 20
-17.6832490937
 10
8.0219162368
 20
-17.7126962091
 10
7.9293681599
 20
-17.7379365937
 10
7.8347167176
 20
-17.7582691258
 10
7.7365596663
 20
-17.7743949271
 10
7.6362992496
 20
-17.7856128758
 10
7.5318321022
 20
-17.7926240937
 10
7.4252615893
 20
-17.7947274591
 10
7.4252615893
 20
-17.7947274591
 10
7.2296486086
 20
-17.7863139976
 10
7.0438513329
 20
-17.7624758566
 10
6.8664675188
 20
-17.7218107925
 10
6.6988994099
 20
-17.6650199271
 10
6.5397447624
 20
-17.5921032604
 10
6.3897046983
 20
-17.5030607925
 10
6.2487792176
 20
-17.3978925232
 10
6.1169683201
 20
-17.2765984527
 10
5.997777615
 20
-17.1426841899
 10
5.8940115893
 20
-16.9996553437
 10
5.8070724868
 20
-16.8468107925
 10
5.7355580637
 20
-16.6855527796
 10
5.6794683201
 20
-16.5151801835
 10
5.6395043778
 20
-16.335693004
 10
5.6156662368
 20
-16.1470912412
 10
5.607953897
 20
-15.949374895
 10
5.607953897
 20
-15.949374895
 10
5.611459506
 20
-15.8203684848
 10
5.6226774547
 20
-15.6941665617
 10
5.6402054996
 20
-15.5728724912
 10
5.666147006
 20
-15.4543829079
 10
5.6983986086
 20
-15.3401000553
 10
5.7383625509
 20
-15.2286216899
 10
5.7853377111
 20
-15.1220511771
 10
5.8393240893
 20
-15.0182851514
 10
5.9003216855
 20
-14.9187258566
 10
5.9676293778
 20
-14.8247755361
 10
6.0412471663
 20
-14.7350319463
 10
6.1211750509
 20
-14.6508973309
 10
6.2074130317
 20
-14.5716705681
 10
6.2999611086
 20
-14.4973516579
 10
6.3981181599
 20
-14.4279406002
 10
6.5032864291
 20
-14.363437395
 10
6.6126614291
 20
-14.3052442861
 10
6.7234386727
 20
-14.2547635168
 10
6.8370204034
 20
-14.2119950873
 10
6.9527054996
 20
-14.1769389976
 10
7.0697928393
 20
-14.1502963694
 10
7.1896846663
 20
-14.1306649591
 10
7.3109787368
 20
-14.1194470104
 10
7.4350772945
 20
-14.1152402796
 10
7.4350772945
 20
-14.1152402796
 10
7.5409466855
 20
-14.1180447668
 10
7.6454138329
 20
-14.1264582284
 10
7.7484787368
 20
-14.1404806643
 10
7.8515436406
 20
-14.1608131963
 10
7.9532063009
 20
-14.1860535809
 10
8.0534667176
 20
-14.2176040617
 10
8.1530260124
 20
-14.254062395
 10
8.2518841855
 20
-14.2968308245
 10
8.3486389932
 20
-14.3445071066
 10
8.4411870701
 20
-14.3970912412
 10
8.5309306599
 20
-14.4538821066
 10
8.6171686406
 20
-14.5162819463
 10
8.6999010124
 20
-14.5828885168
 10
8.779828897
 20
-14.6544029399
 10
8.8555500509
 20
-14.7308252155
 10
8.9284667176
 20
-14.8121553437
  0
LINE
  5
75
330
1F
100
AcDbEntity
  8
0
  6
Continuous
 62
     7
100
AcDbLine
 10
10.6854779355
 20
-15.1024197668
 30
0.0
 11
10.6854736805
 21
-15.1024197668
 31
0.0
  0
LWPOLYLINE
  5
76
330
1F
100
AcDbEntity
  8
0
  6
Continuous
 62
     7
100
AcDbPolyline
 90
       68
 70
   128
 43
0.0
 10
10.6994956732
 20
-15.6857531002
 10
10.6265837047
 20
-15.6892587091
 10
10.5564715252
 20
-15.6983732925
 10
10.4898649547
 20
-15.7152002155
 10
10.4267639932
 20
-15.737636113
 10
10.365766397
 20
-15.7670832284
 10
10.3082744099
 20
-15.8021393181
 10
10.2542880317
 20
-15.8449077476
 10
10.2031061406
 20
-15.8932851514
 10
10.1568321022
 20
-15.9465704079
 10
10.1168681599
 20
-16.004062395
 10
10.0825131919
 20
-16.0643588694
 10
10.0551694419
 20
-16.1288620745
 10
10.0334346663
 20
-16.1968708886
 10
10.0180099868
 20
-16.2683853117
 10
10.0081942817
 20
-16.3441064655
 10
10.0053897945
 20
-16.4226321066
 10
10.0053897945
 20
-16.4226321066
 10
10.0081942817
 20
-16.5039622348
 10
10.017308865
 20
-16.5810856322
 10
10.0327335445
 20
-16.6540022989
 10
10.0544683201
 20
-16.7234133566
 10
10.0818120701
 20
-16.7886176835
 10
10.1154659163
 20
-16.8503164014
 10
10.1554298586
 20
-16.9078083886
 10
10.2010027752
 20
-16.961093645
 10
10.2514835445
 20
-17.0094710489
 10
10.3054699227
 20
-17.0508372348
 10
10.3629619099
 20
-17.0865944463
 10
10.4232583842
 20
-17.1153404399
 10
10.4870604676
 20
-17.1377763373
 10
10.5536670381
 20
-17.1539021386
 10
10.6237792176
 20
-17.163016722
 10
10.697397006
 20
-17.1665223309
 10
10.697397006
 20
-17.1665223309
 10
10.7710147945
 20
-17.163016722
 10
10.841126974
 20
-17.1532010168
 10
10.9084346663
 20
-17.1370752155
 10
10.9722367496
 20
-17.1146393181
 10
11.0332343458
 20
-17.0851922027
 10
11.0907263329
 20
-17.0494349912
 10
11.1454138329
 20
-17.0073676835
 10
11.196595724
 20
-16.9582891579
 10
11.2435708842
 20
-16.9043027796
 10
11.2842359483
 20
-16.8468107925
 10
11.3185909163
 20
-16.7851120745
 10
11.3466357881
 20
-16.7199077476
 10
11.3683705637
 20
-16.6511978117
 10
11.3837952432
 20
-16.5789822668
 10
11.3936109483
 20
-16.5025599912
 10
11.3964154355
 20
-16.4226321066
 10
11.3964154355
 20
-16.4226321066
 10
11.3936109483
 20
-16.342704222
 10
11.384496365
 20
-16.2662819463
 10
11.3690716855
 20
-16.1940664014
 10
11.3473369099
 20
-16.1260575873
 10
11.3199931599
 20
-16.0615543822
 10
11.2863393137
 20
-16.0005567861
 10
11.2463753714
 20
-15.9437659207
 10
11.2001013329
 20
-15.8904806643
 10
11.1496205637
 20
-15.8428043822
 10
11.0956341855
 20
-15.8007370745
 10
11.0381421983
 20
-15.7656809848
 10
10.9771446022
 20
-15.7369349912
 10
10.912641397
 20
-15.7144990937
 10
10.8453337047
 20
-15.6983732925
 10
10.7738192817
 20
-15.6892587091
 10
10.6995003714
 20
-15.6857531002
  0
LWPOLYLINE
  5
77
330
1F
100
AcDbEntity
  8
0
  6
Continuous
 62
     7
100
AcDbPolyline
 90
       50
 70
   128
 43
0.0
 10
12.4733373523
 20
-15.1472915617
 10
13.0118000509
 20
-15.1472915617
 10
13.0118000509
 20
-15.1472915617
 10
13.0118000509
 20
-15.4620952476
 10
13.0118000509
 20
-15.4620952476
 10
13.0594763329
 20
-15.3793628758
 10
13.1141638329
 20
-15.3064462091
 10
13.1758625509
 20
-15.245448613
 10
13.2445724868
 20
-15.194266722
 10
13.318891397
 20
-15.1543027796
 10
13.3974170381
 20
-15.1255567861
 10
13.4787471663
 20
-15.1080287412
 10
13.5635829034
 20
-15.1024197668
 10
13.5635829034
 20
-15.1024197668
 10
13.6252816214
 20
-15.1066264976
 10
13.6883825829
 20
-15.1178444463
 10
13.7535869099
 20
-15.1381769784
 10
13.8194923586
 20
-15.1655207284
 10
13.8194923586
 20
-15.1655207284
 10
13.6245804996
 20
-15.6976721707
 10
13.6245804996
 20
-15.6976721707
 10
13.571996365
 20
-15.6731329079
 10
13.5243200829
 20
-15.6549037412
 10
13.4815516534
 20
-15.6443869143
 10
13.4436910765
 20
-15.6408813053
 10
13.4436910765
 20
-15.6408813053
 10
13.407933865
 20
-15.6436857925
 10
13.3742800188
 20
-15.652099254
 10
13.3413272945
 20
-15.6668228117
 10
13.3097768137
 20
-15.686454222
 10
13.2803296983
 20
-15.7123957284
 10
13.2515837047
 20
-15.7439462091
 10
13.2249410765
 20
-15.7818067861
 10
13.1989995701
 20
-15.8245752155
 10
13.1758625509
 20
-15.8757571066
 10
13.1555300188
 20
-15.9381569463
 10
13.138001974
 20
-16.0117747348
 10
13.1246806599
 20
-16.096610472
 10
13.1134627111
 20
-16.1919630361
 10
13.1057503714
 20
-16.2985335489
 10
13.1008425188
 20
-16.4163220104
 10
13.0994402752
 20
-16.5446272989
 10
13.0994402752
 20
-16.5446272989
 10
13.1015436406
 20
-16.6694269784
 10
13.1015436406
 20
-16.6694269784
 10
13.1015436406
 20
-17.7049838694
 10
13.1015436406
 20
-17.7049838694
 10
12.4733385124
 20
-17.7049838694
 10
12.4733385124
 20
-17.7049838694
 10
12.4733385124
 20
-15.1472915617
  0
LWPOLYLINE
  5
78
330
1F
100
AcDbEntity
  8
0
  6
Continuous
 62
     7
100
AcDbPolyline
 90
       62
 70
   128
 43
0.0
 10
14.7617980838
 20
-15.1472915617
 10
14.7618000509
 20
-15.4354526194
 10
14.7618000509
 20
-15.4354526194
 10
14.8508425188
 20
-15.3569269784
 10
14.9433905958
 20
-15.2896192861
 10
15.0401454034
 20
-15.2321272989
 10
15.1397046983
 20
-15.1858532604
 10
15.243470724
 20
-15.1493949271
 10
15.3500412368
 20
-15.1234534207
 10
15.4608184804
 20
-15.1073276194
 10
15.5744002111
 20
-15.1024197668
 10
15.5744002111
 20
-15.1024197668
 10
15.697797647
 20
-15.1080287412
 10
15.8162872304
 20
-15.1255567861
 10
15.9305700829
 20
-15.1550039014
 10
16.0392439611
 20
-15.1956689655
 10
16.1437111086
 20
-15.2482531002
 10
16.2439715252
 20
-15.3120551835
 10
16.3386229676
 20
-15.3877763373
 10
16.4290676791
 20
-15.4754165617
 10
16.5118000509
 20
-15.5714702476
 10
16.583314474
 20
-15.6745351514
 10
16.6436109483
 20
-15.7846112732
 10
16.6933905958
 20
-15.9002963694
 10
16.7312511727
 20
-16.0229926835
 10
16.7592960445
 20
-16.1527002155
 10
16.7754218458
 20
-16.2887178437
 10
16.7810308201
 20
-16.4310455681
 10
16.7810308201
 20
-16.4310455681
 10
16.7754218458
 20
-16.5684654399
 10
16.7585949227
 20
-16.7009774591
 10
16.7298489291
 20
-16.8271793822
 10
16.6898849868
 20
-16.9470712091
 10
16.6387030958
 20
-17.0620551835
 10
16.576303256
 20
-17.1714301835
 10
16.5026854676
 20
-17.2744950873
 10
16.4171486086
 20
-17.3719510168
 10
16.3238994099
 20
-17.460292363
 10
16.2271446022
 20
-17.5374157604
 10
16.1254819419
 20
-17.6019189655
 10
16.0203136727
 20
-17.655204222
 10
15.9102375509
 20
-17.6965704079
 10
15.7959546983
 20
-17.7260175232
 10
15.6781662368
 20
-17.7442466899
 10
15.5554699227
 20
-17.7498556643
 10
15.5554699227
 20
-17.7498556643
 10
15.4460949227
 20
-17.7449478117
 10
15.3409266534
 20
-17.730224254
 10
15.2392639932
 20
-17.706386113
 10
15.1418080637
 20
-17.672031145
 10
15.0464554996
 20
-17.6264582284
 10
14.9511029355
 20
-17.5689662412
 10
14.8564514932
 20
-17.4988540617
 10
14.7618000509
 20
-17.4161216899
 10
14.7618000509
 20
-17.4161216899
 10
14.7618000509
 20
-18.6472915617
 10
14.7618000509
 20
-18.6472915617
 10
14.1335949227
 20
-18.6472915617
 10
14.1335949227
 20
-18.6472915617
 10
14.1335949227
 20
-15.1472915617
 10
14.1335949227
 20
-15.1472915617
 10
14.7618000509
 20
-15.1472915617
  0
LWPOLYLINE
  5
79
330
1F
100
AcDbEntity
  8
0
  6
Continuous
 62
     7
100
AcDbPolyline
 90
       68
 70
   128
 43
0.0
 10
15.4383778572
 20
-15.6857531002
 10
15.3619603073
 20
-15.6892587091
 10
15.2890436406
 20
-15.6983732925
 10
15.2196325829
 20
-15.7144990937
 10
15.1537271342
 20
-15.7362338694
 10
15.0906261727
 20
-15.764979863
 10
15.0310308201
 20
-15.8000359527
 10
14.9749410765
 20
-15.8414021386
 10
14.9216558201
 20
-15.8890784207
 10
14.8739795381
 20
-15.9416625553
 10
14.8319122304
 20
-15.9984534207
 10
14.7968561406
 20
-16.058749895
 10
14.768110147
 20
-16.1225519784
 10
14.7456742496
 20
-16.1912619143
 10
14.7295484483
 20
-16.2634774591
 10
14.720433865
 20
-16.339198613
 10
14.716928256
 20
-16.4191264976
 10
14.716928256
 20
-16.4191264976
 10
14.720433865
 20
-16.5004566258
 10
14.7295484483
 20
-16.578281145
 10
14.7456742496
 20
-16.6518989335
 10
14.768110147
 20
-16.7213099912
 10
14.7968561406
 20
-16.7872154399
 10
14.8319122304
 20
-16.8489141579
 10
14.8739795381
 20
-16.906406145
 10
14.9216558201
 20
-16.9603925232
 10
14.9749410765
 20
-17.0087699271
 10
15.0310308201
 20
-17.0508372348
 10
15.0906261727
 20
-17.0858933245
 10
15.1537271342
 20
-17.1146393181
 10
15.2196325829
 20
-17.1377763373
 10
15.2890436406
 20
-17.1539021386
 10
15.3619603073
 20
-17.163016722
 10
15.4383825829
 20
-17.1665223309
 10
15.4383825829
 20
-17.1665223309
 10
15.5120003714
 20
-17.163016722
 10
15.5835147945
 20
-17.1532010168
 10
15.6508224868
 20
-17.1370752155
 10
15.7160268137
 20
-17.1139381963
 10
15.7777255317
 20
-17.0844910809
 10
15.8373208842
 20
-17.0487338694
 10
15.892709506
 20
-17.0059654399
 10
15.9459947624
 20
-16.9568869143
 10
15.9943721663
 20
-16.9021994143
 10
16.036439474
 20
-16.8447074271
 10
16.0721966855
 20
-16.7830087091
 10
16.1009426791
 20
-16.7178043822
 10
16.1240796983
 20
-16.6490944463
 10
16.1402054996
 20
-16.5768789014
 10
16.1493200829
 20
-16.5004566258
 10
16.1528256919
 20
-16.421229863
 10
16.1528256919
 20
-16.421229863
 10
16.1493200829
 20
-16.342704222
 10
16.1402054996
 20
-16.2669830681
 10
16.1240796983
 20
-16.195468645
 10
16.1023449227
 20
-16.1274598309
 10
16.0735989291
 20
-16.0636577476
 10
16.0385428393
 20
-16.0026601514
 10
15.9978777752
 20
-15.9458692861
 10
15.9502014932
 20
-15.8925840296
 10
15.8976173586
 20
-15.8442066258
 10
15.8422287368
 20
-15.8021393181
 10
15.783334506
 20
-15.7663821066
 10
15.7209346663
 20
-15.737636113
 10
15.6550292176
 20
-15.7144990937
 10
15.5863192817
 20
-15.6983732925
 10
15.5141037368
 20
-15.6892587091
 10
15.4383825829
 20
-15.6857531002
  0
LINE
  5
7A
330
1F
100
AcDbEntity
  8
0
  6
Continuous
 62
     7
100
AcDbLine
 10
17.6560308201
 20
-16.9870351514
 30
0.0
 11
17.6560282707
 21
-16.9870351514
 31
0.0
  0
CIRCLE
  5
7B
330
1F
100
AcDbEntity
  8
0
  6
Continuous
 62
     7
370
    15
100
AcDbCircle
 10
39.4969959913
 20
-16.7754491018
 30
0.0
 40
1.5
  0
CIRCLE
  5
80
330
1F
100
AcDbEntity
  8
0
  6
Continuous
 62
     7
370
    15
100
AcDbCircle
 10
-26.5030040087
 20
-16.7754491018
 30
0.0
 40
1.499999999999989
  0
LINE
  5
81
330
1F
100
AcDbEntity
  8
0
  6
Continuous
 62
     7
370
    15
100
AcDbLine
 10
44.4969959913
 20
16.7245508982
 30
0.0
 11
-31.5030040087
 21
16.7245508982
 31
0.0
  0
LINE
  5
82
330
1F
100
AcDbEntity
  8
0
  6
Continuous
 62
     7
370
    15
100
AcDbLine
 10
44.4969959913
 20
-53.2754491018
 30
0.0
 11
44.4969959913
 21
16.7245508982
 31
0.0
  0
LINE
  5
83
330
1F
100
AcDbEntity
  8
0
  6
Continuous
 62
     7
370
    15
100
AcDbLine
 10
-31.5030040087
 20
-53.2754491018
 30
0.0
 11
44.4969959913
 21
-53.2754491018
 31
0.0
  0
LINE
  5
84
330
1F
100
AcDbEntity
  8
0
  6
Continuous
 62
     7
370
    15
100
AcDbLine
 10
-31.5030040087
 20
16.7245508982
 30
0.0
 11
-31.5030040087
 21
-53.2754491018
 31
0.0
  0
MTEXT
  5
86
330
1F
100
AcDbEntity
  8
0
  6
Continuous
 62
     7
100
AcDbMText
 10
-31.5030040087
 20
-54.2950154935
 30
0.0
 40
4.83362
 41
0.0
 71
     1
 72
     1
  1
Edition tudiante de SolidWorks.
  7
SLDTEXTSTYLE0
 73
     1
 44
1.0
  0
MTEXT
  5
87
330
1F
100
AcDbEntity
  8
0
  6
Continuous
 62
     7
100
AcDbMText
 10
-31.5030040087
 20
-61.5454454935
 30
0.0
 40
4.83362
 41
0.0
 71
     1
 72
     1
  1
A usage universitaire uniquement.
  7
SLDTEXTSTYLE0
 73
     1
 44
1.0
  0
ENDSEC
  0
SECTION
  2
OBJECTS
  0
DICTIONARY
  5
C
330
0
100
AcDbDictionary
281
     1
  3
ACAD_GROUP
350
D
  3
ACAD_LAYOUT
350
1A
  3
ACAD_MLINESTYLE
350
17
  3
ACAD_PLOTSETTINGS
350
19
  3
ACAD_PLOTSTYLENAME
350
E
  3
ACAD_SCALELIST
350
47
  0
DICTIONARY
  5
D
102
{ACAD_REACTORS
330
C
102
}
330
C
100
AcDbDictionary
281
     1
  0
DICTIONARY
  5
1A
102
{ACAD_REACTORS
330
C
102
}
330
C
100
AcDbDictionary
281
     1
  3
Layout1
350
1E
  3
Layout2
350
26
  3
Model
350
22
  0
DICTIONARY
  5
17
102
{ACAD_REACTORS
330
C
102
}
330
C
100
AcDbDictionary
281
     1
  3
Standard
350
18
  0
DICTIONARY
  5
19
102
{ACAD_REACTORS
330
C
102
}
330
C
100
AcDbDictionary
281
     1
  0
ACDBDICTIONARYWDFLT
  5
E
102
{ACAD_REACTORS
330
C
102
}
330
C
100
AcDbDictionary
281
     1
  3
Normal
350
F
100
AcDbDictionaryWithDefault
340
F
  0
DICTIONARY
  5
47
102
{ACAD_REACTORS
330
C
102
}
330
C
100
AcDbDictionary
281
     1
  3
A0
350
48
  3
A1
350
49
  3
A2
350
4A
  3
A3
350
4B
  3
A4
350
4C
  3
A5
350
4D
  3
A6
350
4E
  3
A7
350
4F
  3
A8
350
50
  3
A9
350
51
  3
B0
350
52
  3
B1
350
53
  3
B2
350
54
  3
B3
350
55
  3
B4
350
56
  3
B5
350
57
  3
B6
350
58
  3
B7
350
59
  3
B8
350
5A
  3
B9
350
5B
  3
C0
350
5C
  3
C1
350
5D
  3
C2
350
5E
  3
C3
350
5F
  3
C4
350
60
  3
C5
350
61
  3
C6
350
62
  3
C7
350
63
  3
C8
350
64
  3
C9
350
65
  3
D0
350
66
  3
D1
350
67
  3
D2
350
68
  0
LAYOUT
  5
1E
102
{ACAD_REACTORS
330
1A
102
}
330
1A
100
AcDbPlotSettings
  1

  2
none_device
  4

  6

 40
0.0
 41
0.0
 42
0.0
 43
0.0
 44
0.0
 45
0.0
 46
0.0
 47
0.0
 48
0.0
 49
0.0
140
0.0
141
0.0
142
1.0
143
1.0
 70
   688
 72
     1
 73
     0
 74
     5
  7

 75
    16
147
1.0
148
0.0
149
0.0
100
AcDbLayout
  1
Layout1
 70
     1
 71
     1
 10
0.0
 20
0.0
 11
420.0
 21
297.0
 12
0.0
 22
0.0
 32
0.0
 14
1.0000000000E+20
 24
1.0000000000E+20
 34
1.0000000000E+20
 15
-1.0000000000E+20
 25
-1.0000000000E+20
 35
-1.0000000000E+20
146
0.0
 13
0.0
 23
0.0
 33
0.0
 16
1.0
 26
0.0
 36
0.0
 17
0.0
 27
1.0
 37
0.0
 76
     0
330
1B
  0
LAYOUT
  5
26
102
{ACAD_REACTORS
330
1A
102
}
330
1A
100
AcDbPlotSettings
  1

  2
none_device
  4

  6

 40
0.0
 41
0.0
 42
0.0
 43
0.0
 44
0.0
 45
0.0
 46
0.0
 47
0.0
 48
0.0
 49
0.0
140
0.0
141
0.0
142
1.0
143
1.0
 70
   688
 72
     1
 73
     0
 74
     5
  7

 75
    16
147
1.0
148
0.0
149
0.0
100
AcDbLayout
  1
Layout2
 70
     1
 71
     2
 10
0.0
 20
0.0
 11
0.0
 21
0.0
 12
0.0
 22
0.0
 32
0.0
 14
0.0
 24
0.0
 34
0.0
 15
0.0
 25
0.0
 35
0.0
146
0.0
 13
0.0
 23
0.0
 33
0.0
 16
1.0
 26
0.0
 36
0.0
 17
0.0
 27
1.0
 37
0.0
 76
     0
330
23
  0
LAYOUT
  5
22
102
{ACAD_REACTORS
330
1A
102
}
330
1A
100
AcDbPlotSettings
  1

  2
none_device
  4
ANSI_A_(11.00_x_8.50_Inches)
  6

 40
6.35
 41
19.05
 42
6.35000508
 43
19.05000254
 44
279.4
 45
215.9
 46
113.5117914574
 47
144.703038251
 48
0.0
 49
0.0
140
0.0
141
0.0
142
0.1202142857
143
1.0
 70
  1696
 72
     0
 73
     0
 74
     0
  7

 75
     0
147
0.0179189148
148
-1300.4909072572
149
0.0
100
AcDbLayout
  1
Model
 70
     1
 71
     0
 10
0.0
 20
0.0
 11
420.0
 21
297.0
 12
0.0
 22
0.0
 32
0.0
 14
-31.5030040087
 24
-53.2754491018
 34
0.0
 15
44.4969959913
 25
16.7245508982
 35
0.0
146
0.0
 13
0.0
 23
0.0
 33
0.0
 16
1.0
 26
0.0
 36
0.0
 17
0.0
 27
1.0
 37
0.0
 76
     0
330
1F
331
29
  0
MLINESTYLE
  5
18
102
{ACAD_REACTORS
330
17
102
}
330
17
100
AcDbMlineStyle
  2
Standard
 70
     0
  3

 62
   256
 51
90.0
 52
90.0
 71
     2
 49
0.5
 62
   256
  6
BYLAYER
 49
-0.5
 62
   256
  6
BYLAYER
  0
ACDBPLACEHOLDER
  5
F
102
{ACAD_REACTORS
330
E
102
}
330
E
  0
SCALE
  5
48
102
{ACAD_REACTORS
330
47
102
}
330
47
100
AcDbScale
 70
     0
300
1:1
140
1.0
141
1.0
290
     1
  0
SCALE
  5
49
102
{ACAD_REACTORS
330
47
102
}
330
47
100
AcDbScale
 70
     0
300
1:2
140
1.0
141
2.0
290
     0
  0
SCALE
  5
4A
102
{ACAD_REACTORS
330
47
102
}
330
47
100
AcDbScale
 70
     0
300
1:4
140
1.0
141
4.0
290
     0
  0
SCALE
  5
4B
102
{ACAD_REACTORS
330
47
102
}
330
47
100
AcDbScale
 70
     0
300
1:5
140
1.0
141
5.0
290
     0
  0
SCALE
  5
4C
102
{ACAD_REACTORS
330
47
102
}
330
47
100
AcDbScale
 70
     0
300
1:8
140
1.0
141
8.0
290
     0
  0
SCALE
  5
4D
102
{ACAD_REACTORS
330
47
102
}
330
47
100
AcDbScale
 70
     0
300
1:10
140
1.0
141
10.0
290
     0
  0
SCALE
  5
4E
102
{ACAD_REACTORS
330
47
102
}
330
47
100
AcDbScale
 70
     0
300
1:16
140
1.0
141
16.0
290
     0
  0
SCALE
  5
4F
102
{ACAD_REACTORS
330
47
102
}
330
47
100
AcDbScale
 70
     0
300
1:20
140
1.0
141
20.0
290
     0
  0
SCALE
  5
50
102
{ACAD_REACTORS
330
47
102
}
330
47
100
AcDbScale
 70
     0
300
1:30
140
1.0
141
30.0
290
     0
  0
SCALE
  5
51
102
{ACAD_REACTORS
330
47
102
}
330
47
100
AcDbScale
 70
     0
300
1:40
140
1.0
141
40.0
290
     0
  0
SCALE
  5
52
102
{ACAD_REACTORS
330
47
102
}
330
47
100
AcDbScale
 70
     0
300
1:50
140
1.0
141
50.0
290
     0
  0
SCALE
  5
53
102
{ACAD_REACTORS
330
47
102
}
330
47
100
AcDbScale
 70
     0
300
1:100
140
1.0
141
100.0
290
     0
  0
SCALE
  5
54
102
{ACAD_REACTORS
330
47
102
}
330
47
100
AcDbScale
 70
     0
300
2:1
140
2.0
141
1.0
290
     0
  0
SCALE
  5
55
102
{ACAD_REACTORS
330
47
102
}
330
47
100
AcDbScale
 70
     0
300
4:1
140
4.0
141
1.0
290
     0
  0
SCALE
  5
56
102
{ACAD_REACTORS
330
47
102
}
330
47
100
AcDbScale
 70
     0
300
8:1
140
8.0
141
1.0
290
     0
  0
SCALE
  5
57
102
{ACAD_REACTORS
330
47
102
}
330
47
100
AcDbScale
 70
     0
300
10:1
140
10.0
141
1.0
290
     0
  0
SCALE
  5
58
102
{ACAD_REACTORS
330
47
102
}
330
47
100
AcDbScale
 70
     0
300
100:1
140
100.0
141
1.0
290
     0
  0
SCALE
  5
59
102
{ACAD_REACTORS
330
47
102
}
330
47
100
AcDbScale
 70
     0
300
1/128" = 1'-0"
140
0.0078125
141
12.0
290
     0
  0
SCALE
  5
5A
102
{ACAD_REACTORS
330
47
102
}
330
47
100
AcDbScale
 70
     0
300
1/64" = 1'-0"
140
0.015625
141
12.0
290
     0
  0
SCALE
  5
5B
102
{ACAD_REACTORS
330
47
102
}
330
47
100
AcDbScale
 70
     0
300
1/32" = 1'-0"
140
0.03125
141
12.0
290
     0
  0
SCALE
  5
5C
102
{ACAD_REACTORS
330
47
102
}
330
47
100
AcDbScale
 70
     0
300
1/16" = 1'-0"
140
0.0625
141
12.0
290
     0
  0
SCALE
  5
5D
102
{ACAD_REACTORS
330
47
102
}
330
47
100
AcDbScale
 70
     0
300
3/32" = 1'-0"
140
0.09375
141
12.0
290
     0
  0
SCALE
  5
5E
102
{ACAD_REACTORS
330
47
102
}
330
47
100
AcDbScale
 70
     0
300
1/8" = 1'-0"
140
0.125
141
12.0
290
     0
  0
SCALE
  5
5F
102
{ACAD_REACTORS
330
47
102
}
330
47
100
AcDbScale
 70
     0
300
3/16" = 1'-0"
140
0.1875
141
12.0
290
     0
  0
SCALE
  5
60
102
{ACAD_REACTORS
330
47
102
}
330
47
100
AcDbScale
 70
     0
300
1/4" = 1'-0"
140
0.25
141
12.0
290
     0
  0
SCALE
  5
61
102
{ACAD_REACTORS
330
47
102
}
330
47
100
AcDbScale
 70
     0
300
3/8" = 1'-0"
140
0.375
141
12.0
290
     0
  0
SCALE
  5
62
102
{ACAD_REACTORS
330
47
102
}
330
47
100
AcDbScale
 70
     0
300
1/2" = 1'-0"
140
0.5
141
12.0
290
     0
  0
SCALE
  5
63
102
{ACAD_REACTORS
330
47
102
}
330
47
100
AcDbScale
 70
     0
300
3/4" = 1'-0"
140
0.75
141
12.0
290
     0
  0
SCALE
  5
64
102
{ACAD_REACTORS
330
47
102
}
330
47
100
AcDbScale
 70
     0
300
1" = 1'-0"
140
1.0
141
12.0
290
     0
  0
SCALE
  5
65
102
{ACAD_REACTORS
330
47
102
}
330
47
100
AcDbScale
 70
     0
300
1-1/2" = 1'-0"
140
1.5
141
12.0
290
     0
  0
SCALE
  5
66
102
{ACAD_REACTORS
330
47
102
}
330
47
100
AcDbScale
 70
     0
300
3" = 1'-0"
140
3.0
141
12.0
290
     0
  0
SCALE
  5
67
102
{ACAD_REACTORS
330
47
102
}
330
47
100
AcDbScale
 70
     0
300
6" = 1'-0"
140
6.0
141
12.0
290
     0
  0
SCALE
  5
68
102
{ACAD_REACTORS
330
47
102
}
330
47
100
AcDbScale
 70
     0
300
1'-0" = 1'-0"
140
12.0
141
12.0
290
     0
  0
ENDSEC
  0
EOF
